<?xml version="1.0" standalone="no"?>
<!DOCTYPE svg PUBLIC "-//W3C//DTD SVG 20010904//EN"
 "http://www.w3.org/TR/2001/REC-SVG-20010904/DTD/svg10.dtd">
<svg version="1.0" xmlns="http://www.w3.org/2000/svg"
 width="976.000000pt" height="976.000000pt" viewBox="0 0 976.000000 976.000000"
 preserveAspectRatio="xMidYMid meet">
<metadata>
Created by potrace 1.11, written by Peter Selinger 2001-2013
</metadata>
<g transform="translate(0.000000,976.000000) scale(0.100000,-0.100000)"
fill="#000000" stroke="none">
<path d="M3307 9754 c-1 -1 -69 -5 -150 -8 -460 -21 -542 -60 -618 -298 -17
-55 -79 -353 -94 -458 -4 -25 -11 -67 -16 -95 -5 -27 -12 -66 -15 -85 -7 -45
-24 -145 -70 -395 -3 -16 -11 -61 -19 -100 -8 -38 -17 -83 -20 -100 -11 -66
-16 -89 -20 -96 -3 -4 -7 -24 -10 -45 -4 -22 -8 -47 -11 -56 -3 -9 -7 -27 -9
-40 -3 -13 -9 -45 -15 -73 -6 -27 -12 -60 -15 -73 -2 -13 -6 -31 -9 -40 -3 -9
-7 -28 -10 -42 -3 -14 -7 -34 -9 -45 -5 -21 -36 -164 -43 -200 -2 -11 -6 -29
-8 -40 -35 -162 -59 -275 -63 -295 -2 -14 -10 -50 -18 -80 -7 -30 -16 -68 -19
-85 -3 -16 -7 -41 -10 -55 -7 -27 -14 -62 -22 -99 -3 -14 -30 -137 -60 -275
-31 -138 -58 -262 -60 -276 -3 -14 -10 -45 -16 -70 -5 -25 -12 -58 -14 -75 -3
-16 -7 -37 -10 -45 -3 -8 -12 -46 -19 -85 -8 -38 -23 -113 -35 -165 -12 -52
-23 -102 -25 -111 -2 -9 -6 -33 -9 -53 -3 -19 -11 -57 -17 -83 -6 -27 -13 -59
-15 -73 -3 -14 -14 -63 -24 -110 -10 -47 -21 -98 -23 -115 -4 -27 -26 -139
-62 -320 -8 -38 -17 -86 -20 -105 -3 -19 -15 -78 -27 -130 -11 -52 -22 -106
-24 -120 -3 -14 -13 -65 -24 -115 -10 -49 -21 -101 -24 -115 -11 -61 -100
-457 -155 -691 -33 -141 -62 -267 -65 -280 -2 -13 -36 -166 -75 -339 -39 -173
-73 -326 -76 -340 -5 -28 -5 -26 -34 -160 -11 -52 -22 -106 -25 -120 -7 -39
-72 -315 -96 -410 -19 -72 -44 -163 -101 -367 -23 -82 -31 -118 -63 -263 -28
-126 -68 -335 -110 -575 -3 -16 -19 -120 -36 -230 -17 -110 -33 -211 -36 -225
-11 -56 -12 -172 -2 -202 43 -131 183 -172 488 -144 203 19 728 25 2540 30
1076 3 1439 8 1615 21 98 7 276 29 340 41 11 2 56 11 100 19 44 9 95 20 115
25 19 5 46 11 60 14 14 3 34 7 45 10 11 2 43 9 70 16 395 89 825 300 1165 570
134 107 382 355 489 490 314 396 543 846 669 1315 48 176 65 264 88 445 3 25
7 56 10 70 17 107 24 477 11 594 -19 169 -74 358 -151 516 -47 98 -269 433
-373 566 -95 121 -167 169 -213 144 -34 -18 -69 -118 -95 -270 -3 -19 -10 -54
-16 -78 -5 -23 -12 -59 -15 -80 -3 -20 -7 -45 -10 -54 -3 -10 -7 -30 -10 -45
-3 -16 -13 -73 -24 -128 -22 -117 -27 -144 -35 -205 -10 -79 -26 -163 -47
-250 -11 -47 -21 -93 -23 -103 -11 -52 -127 -405 -153 -467 -6 -14 -27 -68
-47 -120 -84 -219 -311 -714 -367 -800 -9 -14 -25 -41 -35 -60 -132 -248 -406
-537 -682 -719 -336 -222 -726 -359 -1096 -386 -204 -15 -295 -17 -1085 -20
-1216 -5 -1760 -4 -1843 3 -26 3 -48 62 -41 113 4 23 26 102 50 175 50 153 46
135 84 329 16 83 36 182 45 220 8 39 18 81 21 94 2 12 11 51 19 85 8 33 16 72
19 86 2 14 14 70 25 125 12 55 39 188 61 295 22 107 47 229 56 270 8 41 18 86
20 100 2 14 7 36 10 50 3 14 8 36 10 49 3 13 32 155 65 315 33 160 63 302 65
316 5 23 79 382 89 425 2 11 6 31 9 45 3 14 17 79 32 145 14 66 30 138 35 160
4 22 11 51 14 65 3 14 10 47 15 73 5 27 12 52 14 56 3 4 7 21 10 37 7 37 55
249 91 399 15 61 29 121 31 135 3 14 7 33 10 42 3 9 7 27 9 40 3 13 46 199 96
413 50 215 92 397 94 405 2 8 19 87 38 175 20 88 38 174 41 190 2 17 7 41 10
55 9 41 25 123 31 155 2 17 25 129 51 250 25 121 48 231 50 245 3 14 10 43 15
65 10 41 16 66 23 100 11 48 95 473 99 500 3 17 10 57 15 90 6 33 13 78 16
100 33 249 59 363 97 415 48 66 93 82 244 89 187 9 2455 7 2550 -2 155 -14
303 -33 380 -47 28 -5 65 -12 83 -15 29 -5 66 -14 193 -45 171 -43 336 -137
457 -259 117 -119 179 -255 217 -481 9 -52 32 -142 51 -200 20 -58 37 -112 39
-120 1 -8 8 -33 13 -55 16 -61 60 -284 67 -340 3 -27 10 -84 14 -125 9 -74 6
-448 -3 -525 -18 -138 -24 -183 -41 -280 -8 -44 -16 -91 -19 -105 -2 -14 -7
-36 -10 -50 -3 -14 -22 -101 -41 -195 -20 -93 -40 -183 -45 -200 -5 -16 -11
-41 -14 -55 -3 -14 -7 -36 -10 -50 -31 -141 -31 -149 -1 -160 134 -51 658 447
935 890 63 100 175 322 220 435 70 174 160 487 175 607 4 29 8 55 10 59 10 15
20 173 20 319 0 149 -8 274 -21 348 -6 28 -32 163 -39 197 -14 66 -84 256
-131 353 -98 208 -253 417 -417 566 -104 94 -258 207 -363 267 -137 77 -198
109 -208 109 -7 0 -16 4 -21 9 -29 28 -345 137 -480 165 -103 22 -121 25 -194
32 -36 4 -79 8 -96 10 -31 3 -198 13 -315 19 -344 17 -988 21 -2850 17 -173 0
-402 0 -508 1 -106 2 -194 2 -195 1z"/>
</g>
</svg>
